<svg width="72" height="91" viewBox="0 0 72 91" fill="none" xmlns="http://www.w3.org/2000/svg">
<path d="M53.3139 35.8356C43.4346 35.4319 35.7331 27.0716 36.1368 17.1923C36.5404 7.31303 44.9006 -0.388499 54.7799 0.0151711C64.6592 0.418842 72.3608 8.77899 71.9572 18.6583C71.5535 28.527 63.1932 36.2393 53.3139 35.8356ZM54.3549 10.2874C50.1483 10.1175 46.579 13.4 46.409 17.6066C46.2391 21.8133 49.5215 25.3826 53.7282 25.5526C57.9349 25.7225 61.5042 22.4402 61.6741 18.2335C61.8547 14.0268 58.5616 10.468 54.3549 10.2874Z" fill="url(#paint0_linear_6601_2)"/>
<path d="M7.46578 25.85L1.13444 35.8462C-1.8506 40.5521 1.38937 46.7134 6.95577 46.9471L18.7791 47.4358C24.3455 47.6589 28.0742 41.7843 25.4822 36.8447L19.9901 26.3705C17.3981 21.4309 10.4508 21.144 7.46578 25.85Z" fill="#76C591"/>
<path d="M56.6496 18.0316C56.5859 19.4763 55.375 20.5917 53.9302 20.5279C52.4855 20.4642 51.37 19.2532 51.4338 17.8085C51.4975 16.3638 52.7086 15.2484 54.1426 15.3122C55.5767 15.3759 56.7134 16.5869 56.6496 18.0316Z" fill="#76C591"/>
<path d="M26.8422 87.5374L9.30374 68.5011C5.90441 64.815 6.1381 59.068 9.82425 55.6793L28.8604 38.1409C32.5466 34.7416 38.2936 34.9753 41.6823 38.6614L59.2208 57.6976C62.6201 61.3837 62.3864 67.1308 58.7003 70.5195L39.664 88.0579C35.9778 91.4573 30.2309 91.2236 26.8422 87.5374ZM18.9599 63.8057L32.3022 78.2848C33.0033 79.0496 34.2037 79.1028 34.9686 78.3911L49.4476 65.0487C50.2125 64.3476 50.2657 63.1472 49.5539 62.3823L36.2115 47.9033C35.5104 47.1384 34.31 47.0853 33.5452 47.7971L19.0661 61.1394C18.3013 61.8405 18.2482 63.0409 18.9599 63.8057Z" fill="url(#paint1_linear_6601_2)"/>
<path d="M54.0468 17.9253L34.2563 63.0939" stroke="#76C591" stroke-width="1.4673" stroke-miterlimit="10"/>
<path d="M34.2564 65.5797C35.6292 65.5797 36.7421 64.4669 36.7421 63.094C36.7421 61.7212 35.6292 60.6082 34.2564 60.6082C32.8835 60.6082 31.7705 61.7212 31.7705 63.094C31.7705 64.4669 32.8835 65.5797 34.2564 65.5797Z" fill="#82C2EB"/>
<defs>
<linearGradient id="paint0_linear_6601_2" x1="36.2313" y1="23.2027" x2="70.6628" y2="13.2078" gradientUnits="userSpaceOnUse">
<stop stop-color="#B1DCF5"/>
<stop offset="0.9985" stop-color="#82C2EB"/>
</linearGradient>
<linearGradient id="paint1_linear_6601_2" x1="40.6798" y1="88.8585" x2="23.1157" y2="18.457" gradientUnits="userSpaceOnUse">
<stop offset="0.00035903" stop-color="#FEEB8A"/>
<stop offset="0.2675" stop-color="#F8C3A8"/>
<stop offset="0.5391" stop-color="#F59BB6"/>
<stop offset="0.6841" stop-color="#F497B5"/>
<stop offset="0.8639" stop-color="#F28BB1"/>
<stop offset="0.9989" stop-color="#EF7FAD"/>
</linearGradient>
</defs>
</svg>
